<svg xmlns="http://www.w3.org/2000/svg" width="160" height="80" viewBox="0 0 160 80">
  <!-- tallo continuo (se repite sin costura en horizontal) -->
  <path d="M0,40 H160" fill="none" stroke="#5e6a30" stroke-width="2.2" stroke-linecap="round"/>

  <!-- aceitunas -->
  <g fill="#39481d">
    <path d="M78,40 q-1,8 -4,11" fill="none" stroke="#5e6a30" stroke-width="1.4"/>
    <ellipse cx="74" cy="54" rx="4.3" ry="5.4"/>
    <ellipse cx="81" cy="51" rx="3.7" ry="4.7"/>
  </g>

  <!-- hojas lanceoladas (fill + nervadura) -->
  <g>
    <g transform="translate(18,40) rotate(-46) scale(28)">
      <path d="M0,0C0.25,-0.13,0.75,-0.13,1,0C0.75,0.13,0.25,0.13,0,0Z" fill="#6f7d3e"/>
      <path d="M0,0L1,0" fill="none" stroke="#9aa766" stroke-width="0.035"/>
    </g>
    <g transform="translate(38,40) rotate(-18) scale(18)">
      <path d="M0,0C0.25,-0.13,0.75,-0.13,1,0C0.75,0.13,0.25,0.13,0,0Z" fill="#76854a"/>
      <path d="M0,0L1,0" fill="none" stroke="#9aa766" stroke-width="0.05"/>
    </g>
    <g transform="translate(58,40) rotate(44) scale(28)">
      <path d="M0,0C0.25,-0.13,0.75,-0.13,1,0C0.75,0.13,0.25,0.13,0,0Z" fill="#6f7d3e"/>
      <path d="M0,0L1,0" fill="none" stroke="#9aa766" stroke-width="0.035"/>
    </g>
    <g transform="translate(98,40) rotate(-50) scale(30)">
      <path d="M0,0C0.25,-0.13,0.75,-0.13,1,0C0.75,0.13,0.25,0.13,0,0Z" fill="#6f7d3e"/>
      <path d="M0,0L1,0" fill="none" stroke="#9aa766" stroke-width="0.033"/>
    </g>
    <g transform="translate(118,40) rotate(20) scale(18)">
      <path d="M0,0C0.25,-0.13,0.75,-0.13,1,0C0.75,0.13,0.25,0.13,0,0Z" fill="#76854a"/>
      <path d="M0,0L1,0" fill="none" stroke="#9aa766" stroke-width="0.05"/>
    </g>
    <g transform="translate(138,40) rotate(42) scale(27)">
      <path d="M0,0C0.25,-0.13,0.75,-0.13,1,0C0.75,0.13,0.25,0.13,0,0Z" fill="#6f7d3e"/>
      <path d="M0,0L1,0" fill="none" stroke="#9aa766" stroke-width="0.036"/>
    </g>
  </g>
</svg>
